PathFileType	4	(X/Y/Z)	C:\Users\WrightLab\Desktop\Jo\P2_Trial20.trc
DataRate	CameraRate	NumFrames	NumMarkers	Units	OrigDataRate	OrigDataStartFrame	OrigNumFrames
100.00	100.00	       16	19	mm	100.00	492	       787
Frame#	Time	Headset_Front			Headset_Back			Headset_Left			Headset_Right			Left_Shoulder			Right_Shoulder			Sternum			C7			Left Elbow			Right Elbow			Left Wrist			Right Wrist			Left ASIS			Right ASIS			S2			Left Knee			Right Knee			Left Ankle			Right Ankle			
		X1	Y1	Z1	X2	Y2	Z2	X3	Y3	Z3	X4	Y4	Z4	X5	Y5	Z5	X6	Y6	Z6	X7	Y7	Z7	X8	Y8	Z8	X9	Y9	Z9	X10	Y10	Z10	X11	Y11	Z11	X12	Y12	Z12	X13	Y13	Z13	X14	Y14	Z14	X15	Y15	Z15	X16	Y16	Z16	X17	Y17	Z17	X18	Y18	Z18	X19	Y19	Z19	

492	4.910	-283.08163	1385.94775	7.54058	-275.79218	1660.16467	149.14268	-389.45734	1535.86597	110.91833	-175.06207	1482.82166	47.02823	-376.56564	1499.87146	340.80331	-151.49828	1373.36194	142.53659	-321.61313	1314.86096	243.89359	-174.52586	1450.16138	303.98596	-543.72693	1332.68457	461.24750	-21.00645	1068.56506	194.99719	-430.00772	1307.62134	558.63824	-6.18138	854.60254	104.48402	-392.93655	1058.37488	358.09561	-301.91632	1015.06342	270.14951	-169.82077	995.60187	509.46573	-546.73126	541.28375	559.18658	-138.28102	540.51056	317.97705	-693.35620	228.85951	570.26385	-198.66437	107.52395	346.09302	
493	4.920	-285.48700	1385.87488	6.78472	-279.20993	1660.28540	148.24704	-392.38480	1535.78857	109.81026	-177.80998	1483.44812	46.21333	-379.50296	1499.80505	340.19891	-154.02934	1373.86572	141.04254	-324.73563	1314.90796	242.90440	-177.40067	1450.99231	307.27100	-546.73871	1331.96423	459.88068	-22.57077	1069.25122	196.91145	-433.78119	1307.39893	557.49506	-5.04237	851.71887	113.07526	-395.90781	1058.61523	356.43237	-305.04205	1015.49799	267.64474	-172.73532	995.12280	507.33725	-548.86334	539.88220	555.35901	-141.45255	540.47748	316.83566	-694.30914	227.36401	566.19696	-198.66437	107.52395	346.09302	
494	4.930	-287.42682	1385.87476	6.26247	-282.23956	1660.08826	147.20383	-395.19498	1535.70093	108.72448	-179.97163	1483.75061	45.87831	-382.10651	1499.34668	339.51520	-156.14034	1374.01416	140.24182	-327.90768	1315.22791	241.26151	-180.16583	1449.87781	302.20380	-549.49963	1331.55383	458.74313	-24.07827	1070.43591	199.15483	-437.10983	1306.04529	556.83038	-3.68961	848.89447	121.28632	-399.16376	1058.18909	354.96689	-308.74734	1015.86957	265.51590	-175.19716	994.93457	504.93060	-551.04962	538.74066	551.83942	-144.65260	540.12079	315.97812	-695.35889	225.38129	562.08435	-198.66437	107.52395	346.09302	
495	4.940	-290.11691	1386.11316	5.18184	-285.63965	1660.62451	146.23125	-398.07681	1535.77942	107.45525	-183.01329	1484.59753	44.67059	-385.44449	1499.30518	339.25137	-159.05042	1374.36914	139.30501	-330.47836	1315.01855	240.28635	-183.19122	1449.72070	301.19312	-552.35059	1330.95239	457.89761	-27.24811	1070.25171	200.94316	-440.15173	1304.59729	555.65222	-3.00112	846.60419	130.06873	-402.14053	1058.36511	353.06732	-311.75040	1015.92542	263.48270	-178.11743	994.23724	502.97147	-553.46545	537.97101	548.56030	-147.52438	540.62140	313.73230	-695.89270	224.02855	556.82654	-198.70943	107.09171	345.58698	
496	4.950	-292.49097	1386.16919	4.89801	-289.12128	1660.88538	145.69237	-401.17010	1535.75989	106.55724	-185.71440	1484.85229	44.99250	-388.19620	1499.05273	339.01419	-162.18498	1374.49280	138.10461	-333.69714	1315.40491	239.30814	-186.39372	1449.52869	300.60123	-555.30090	1330.51685	457.22308	-29.46009	1071.89539	204.06483	-443.30322	1303.93591	555.08423	-2.14318	844.30676	138.65105	-405.35596	1057.89148	351.40186	-315.00946	1016.00641	261.66855	-181.11613	993.40082	500.77704	-555.68390	536.36981	544.89557	-151.22075	539.85864	312.59821	-696.87390	221.70094	551.63867	-199.20015	106.41178	345.58054	
497	4.960	-295.60965	1386.95422	3.62797	-292.53128	1660.76440	144.91046	-404.46222	1535.88208	105.16460	-188.47166	1485.35803	43.86880	-390.86942	1499.12964	338.46524	-165.11143	1374.86316	137.45543	-336.93594	1315.55835	237.71715	-189.90796	1449.60559	300.66946	-558.33472	1330.53687	456.91693	-32.15405	1072.96411	204.77386	-444.81723	1302.62903	552.96777	-1.60299	843.16632	146.90370	-408.62033	1057.84973	349.46500	-317.76135	1015.26111	260.59793	-184.29509	992.69867	497.48636	-557.97876	535.08160	541.06561	-155.08240	539.29565	310.25064	-697.38776	220.26193	545.65839	-200.10814	104.64045	344.82657	
498	4.970	-297.88065	1387.27429	2.44947	-295.83682	1661.50098	143.67464	-407.76431	1536.22046	104.22878	-191.78418	1485.55981	43.87047	-393.85660	1498.92224	338.09201	-168.65161	1375.49243	135.82156	-340.16232	1315.74536	236.64713	-192.95058	1449.19165	299.16446	-560.60742	1330.38879	456.44751	-36.06940	1073.58411	207.01907	-447.00504	1301.63782	551.99164	-1.43288	841.77588	154.82227	-412.10648	1057.36133	347.83179	-321.63440	1014.76727	258.63159	-187.41667	992.51172	495.42081	-560.79834	533.86963	537.71686	-158.38872	538.93323	308.07504	-698.74792	217.93387	539.61322	-200.69536	105.00408	344.26599	
499	4.980	-300.82886	1387.11243	2.05358	-300.12134	1662.11609	143.58635	-411.03925	1536.37097	102.96777	-194.79739	1486.28906	43.32679	-397.24716	1499.35010	338.35031	-172.00972	1376.02356	135.15996	-343.18793	1316.14783	235.87161	-196.04251	1448.93469	298.05453	-564.01715	1330.51343	456.72635	-39.65704	1073.75476	208.65800	-449.64542	1300.65759	551.23199	-0.90872	841.78748	162.59720	-415.49844	1057.34241	345.78683	-325.04620	1015.00031	255.51527	-190.51044	991.78241	493.78760	-563.57935	532.64075	533.56512	-161.58865	538.31873	306.91379	-699.96918	216.02679	534.01807	-201.96930	104.67178	344.04565	
500	4.990	-304.25220	1388.45142	0.70907	-303.90796	1662.16711	142.77495	-414.56046	1536.63123	101.75634	-197.82249	1486.68726	42.69814	-400.17798	1498.96094	338.07822	-175.06488	1376.42041	134.15860	-346.90604	1316.38110	234.50450	-199.38429	1448.78723	296.72961	-565.26740	1329.85278	456.21707	-43.57246	1074.96338	210.21434	-451.47098	1299.74890	550.14941	-1.21461	840.81830	170.96187	-419.23343	1057.13464	344.12531	-329.22583	1014.69781	253.64229	-193.42824	991.31293	490.18942	-565.77106	531.29047	529.37482	-165.13467	537.79034	304.76343	-701.88690	214.43144	526.01428	-202.41443	104.07155	343.15051	
501	5.000	-306.59232	1388.75110	0.26072	-307.26181	1662.31079	141.75540	-418.16946	1536.87390	100.59379	-201.48444	1487.42725	42.79419	-403.35934	1498.58240	337.65601	-179.23712	1376.59827	132.57921	-350.38358	1316.29224	233.47482	-202.70889	1448.46179	295.48279	-569.17242	1330.85168	457.25085	-47.41911	1075.52686	211.18874	-452.81476	1298.35779	549.24957	-1.34969	840.49677	178.01091	-422.63855	1056.75293	341.77344	-333.32733	1014.61725	251.62779	-196.64925	990.65302	488.30399	-568.95313	530.11115	525.46283	-167.88081	537.99829	302.30960	-702.96155	213.18846	519.71472	-202.92632	104.60724	342.87363	
502	5.010	-309.41971	1388.78149	-1.40838	-312.12158	1662.73840	141.67850	-421.83228	1536.95178	99.34531	-204.93672	1487.84753	42.12704	-406.62222	1498.42090	337.36682	-183.39238	1376.45874	132.05212	-353.89627	1316.66736	232.57260	-206.22688	1448.36511	293.85818	-570.22754	1330.31555	456.90109	-52.17665	1076.43884	212.08990	-455.91977	1298.16724	548.74738	-1.75405	840.87189	184.84676	-426.56720	1056.66541	339.68842	-337.50516	1014.33856	248.75339	-200.57590	989.83728	485.68262	-572.40424	529.20496	521.44922	-171.22844	537.39423	300.93607	-705.19403	211.00160	512.62781	-203.05386	104.04367	342.34042	
503	5.020	-313.67975	1389.42139	-2.86143	-316.21194	1663.37097	140.82603	-425.73267	1537.15674	98.07607	-208.28316	1488.47351	40.67000	-410.51202	1498.51611	337.06177	-187.06137	1377.41516	130.34795	-357.59006	1316.93848	231.68590	-210.08600	1448.46729	292.92346	-573.96722	1331.08032	458.23746	-56.82684	1077.02527	212.83005	-457.29379	1296.45166	547.99652	-2.33014	840.72174	191.55698	-430.63959	1056.36157	337.87512	-341.63702	1014.34045	246.78662	-204.71391	989.32391	482.55966	-574.39789	527.90216	516.61127	-173.78117	536.94879	297.81668	-707.54431	209.87175	504.83542	-203.44931	102.70549	342.02875	
504	5.030	-317.11588	1390.27002	-3.96997	-320.08951	1663.11035	139.81427	-429.64075	1537.27747	96.82901	-212.17520	1489.03369	39.40321	-413.60873	1498.10693	336.51480	-191.57492	1377.07813	129.88766	-361.82257	1317.28931	230.33640	-213.95436	1448.38892	292.41400	-576.40649	1330.90686	458.91608	-61.32641	1078.21423	213.46719	-458.26111	1295.24878	546.96509	-3.21595	840.87811	197.31976	-434.69748	1056.21680	335.79175	-345.75348	1014.47675	243.62677	-208.02336	988.69482	480.62668	-577.32007	525.81195	512.38397	-176.67764	536.31213	295.44589	-709.49847	208.21931	498.05179	-203.80125	102.19334	340.64703	
505	5.040	-320.42599	1390.45642	-4.39298	-324.14371	1663.62830	139.15588	-433.54156	1537.40808	95.73402	-216.08507	1489.85681	39.35483	-417.25497	1497.58997	335.78909	-195.38564	1378.79932	126.68443	-365.96011	1317.56689	228.79193	-217.46686	1447.82056	289.74084	-578.97809	1330.97461	459.49768	-66.31353	1079.11499	213.27872	-460.62491	1294.70972	546.45471	-4.90056	840.73230	203.32634	-438.67099	1056.00452	333.13464	-350.06503	1014.24194	241.40659	-211.89613	987.44080	477.94760	-580.61255	525.10870	506.38739	-179.31100	536.51996	293.16541	-711.80786	206.89899	490.15866	-205.32372	102.39604	339.17758	
506	5.050	-324.50339	1390.88501	-5.43747	-328.26508	1663.62183	138.21039	-438.01828	1537.76575	94.64435	-220.19052	1490.40369	39.40026	-422.15335	1497.84460	335.38522	-199.80792	1379.28857	125.48601	-370.32922	1317.93762	227.77550	-221.88596	1447.40649	289.54694	-582.14221	1330.76733	460.88272	-70.95817	1080.53601	213.21793	-463.00647	1294.32971	546.02301	-6.18118	841.09796	209.15269	-443.00031	1055.46692	331.04468	-354.34097	1014.20502	239.37846	-215.98544	986.90375	475.14252	-582.96722	523.51605	501.43488	-181.66237	536.15063	290.35849	-714.25684	205.63536	482.92035	-205.26115	102.24971	338.85846	
507	5.060	-328.10364	1391.49353	-6.41101	-332.93430	1663.97437	137.42520	-442.30112	1538.09497	93.59173	-224.22639	1490.76953	37.71446	-426.19394	1497.50220	334.50867	-204.73560	1379.05615	125.72973	-374.61395	1318.03552	226.07411	-226.33858	1447.32556	288.59042	-584.09271	1329.76868	461.43466	-75.78491	1081.29517	212.43509	-464.26334	1293.10559	545.26233	-7.86926	841.59985	213.06676	-447.09073	1054.92163	328.49084	-358.94965	1013.88159	236.84891	-220.49159	985.95996	471.96625	-586.54260	522.08173	496.24799	-184.19949	536.25879	287.91034	-717.26007	204.44389	475.37833	-205.57892	101.84314	337.70270	
